External Loads File
version=1
nRows=38
nColumns=13
Range=5.000000e-03-10 seconds
endheader
time 	forceRightX 	forceRightY 	forceRightZ 	pointRightX 	pointRightY 	pointRightZ 	forceLeftX 	forceLeftY 	forceLeftZ 	pointLeftX 	pointLeftY 	pointLeftZ 		
2.505000 -6.388744 -76.694756 -0.000000 0.150330 0.340861 -0.124650 -286.438884 642.911844 -0.000000 0.440484 0.294845 -0.369891
2.510000 -8.637463 -75.968825 -0.000000 0.151506 0.347274 -0.124918 -287.659916 659.160551 -0.000000 0.440413 0.288411 -0.369735
2.515000 -10.853115 -75.282215 -0.000000 0.152898 0.353654 -0.125016 -287.536620 676.108772 -0.000000 0.439582 0.281944 -0.369382
2.520000 -12.975554 -74.641646 -0.000000 0.154659 0.359942 -0.125099 -286.402527 693.240481 -0.000000 0.438760 0.275549 -0.369301
2.525000 -15.210690 -73.992365 -0.000000 0.156521 0.366616 -0.125170 -282.501463 710.798098 -0.000000 0.437653 0.269040 -0.369169
2.530000 -17.460117 -73.314875 -0.000000 0.158782 0.373124 -0.125197 -277.096907 727.715771 -0.000000 0.436216 0.262667 -0.369128
2.535000 -19.773985 -72.557509 -0.000000 0.161146 0.379636 -0.125248 -270.093359 743.514400 -0.000000 0.434630 0.256474 -0.369082
2.540000 -22.113067 -71.681163 -0.000000 0.163672 0.385655 -0.125337 -262.048462 757.550280 -0.000000 0.432659 0.250362 -0.368996
2.545000 -24.536574 -70.610902 -0.000000 0.166156 0.391762 -0.125468 -252.103154 769.775473 -0.000000 0.430568 0.244278 -0.369004
2.550000 -27.105961 -69.264255 -0.000000 0.169847 0.397912 -0.125199 -239.017922 780.259781 -0.000000 0.428194 0.238377 -0.368908
2.555000 -29.568688 -67.686760 -0.000000 0.172897 0.404068 -0.125365 -225.149603 787.959363 -0.000000 0.425661 0.232494 -0.368874
2.560000 -31.889522 -65.849247 -0.000000 0.175874 0.410018 -0.125732 -210.899245 792.560184 -0.000000 0.422979 0.226818 -0.368838
2.565000 -34.239249 -63.590119 -0.000000 0.179522 0.415891 -0.125634 -194.467948 794.384588 -0.000000 0.420025 0.221165 -0.368817
2.570000 -36.413155 -60.916021 -0.000000 0.182617 0.421700 -0.125919 -178.657879 792.679936 -0.000000 0.416947 0.215733 -0.368775
2.575000 -38.578867 -57.633155 -0.000000 0.186436 0.427470 -0.126066 -161.307985 788.039781 -0.000000 0.413687 0.210413 -0.368644
2.580000 -40.646056 -53.680884 -0.000000 0.190996 0.433065 -0.125947 -143.113140 780.416340 -0.000000 0.410374 0.205250 -0.368472
2.585000 -42.316969 -49.182999 -0.000000 0.194144 0.438353 -0.126827 -128.075742 769.298459 -0.000000 0.406727 0.200393 -0.368603
2.590000 -44.057090 -43.648862 -0.000000 0.199954 0.443590 -0.125411 -108.769795 756.163789 -0.000000 0.403040 0.195631 -0.368466
2.595000 -45.290361 -37.572574 -0.000000 0.203427 0.448601 -0.126586 -94.936351 739.761577 -0.000000 0.399308 0.191140 -0.368374
2.600000 -46.506225 -30.461552 -0.000000 0.208509 0.453616 -0.126425 -78.603562 721.498989 -0.000000 0.395364 0.186735 -0.368216
2.605000 -47.494525 -22.669471 -0.000000 0.212659 0.458349 -0.126851 -65.402167 700.963709 -0.000000 0.391372 0.182607 -0.368139
2.610000 -48.475436 -13.982162 -0.000000 0.217629 0.462760 -0.127160 -51.745790 678.802104 -0.000000 0.387186 0.178616 -0.368029
2.615000 -49.474255 -4.496455 -0.000000 0.222606 0.467045 -0.127198 -39.035752 655.061344 -0.000000 0.382906 0.174782 -0.367956
2.620000 -50.577366 5.810129 -0.000000 0.227531 0.471208 -0.127133 -27.311576 629.872959 -0.000000 0.378448 0.171305 -0.367834
2.625000 -51.850537 16.974058 -0.000000 0.232232 0.475136 -0.126977 -16.561642 603.333598 -0.000000 0.373829 0.167873 -0.367643
2.630000 -53.273040 29.085406 -0.000000 0.237440 0.478857 -0.126661 -5.736270 575.540836 -0.000000 0.369069 0.164822 -0.367542
2.635000 -54.760718 42.090868 -0.000000 0.243054 0.482397 -0.126840 5.301655 546.539393 -0.000000 0.364140 0.161859 -0.367444
2.640000 -56.327700 55.702189 -0.000000 0.248405 0.485612 -0.126812 15.314241 516.435282 -0.000000 0.359075 0.159212 -0.367325
2.645000 -57.859764 69.743728 -0.000000 0.253875 0.488672 -0.126808 25.036498 485.384035 -0.000000 0.353865 0.156865 -0.367243
2.650000 -59.317373 83.901682 -0.000000 0.259346 0.491544 -0.126782 34.297592 453.591807 -0.000000 0.348516 0.154733 -0.367137
2.655000 -60.666304 97.859913 -0.000000 0.264898 0.494194 -0.126714 43.068182 421.291854 -0.000000 0.343068 0.152914 -0.366974
2.660000 -61.876263 111.341041 -0.000000 0.270503 0.496440 -0.126586 51.337113 388.724922 -0.000000 0.337440 0.151333 -0.366793
2.665000 -62.769604 124.227006 -0.000000 0.276724 0.498366 -0.126844 59.506133 356.058964 -0.000000 0.331713 0.150112 -0.366595
2.670000 -63.747231 136.209973 -0.000000 0.282286 0.500006 -0.126629 66.274842 323.718516 -0.000000 0.325816 0.149048 -0.366463
2.675000 -64.756836 147.348930 -0.000000 0.287693 0.501373 -0.126354 71.938041 291.880300 -0.000000 0.319933 0.148409 -0.366276
2.680000 -65.587094 157.866737 -0.000000 0.293257 0.502452 -0.126050 76.838862 260.596881 -0.000000 0.313920 0.147949 -0.366119
2.685000 -66.171645 168.008959 -0.000000 0.299095 0.503185 -0.126007 80.863743 229.952708 -0.000000 0.307873 0.147777 -0.365889
2.690000 -66.764887 177.971582 -0.000000 0.304568 0.503676 -0.125909 83.560337 200.156062 -0.000000 0.301792 0.147855 -0.365717
